<?xml version="1.0" encoding="UTF-8"?><svg id="Layer_2" xmlns="http://www.w3.org/2000/svg" xmlns:xlink="http://www.w3.org/1999/xlink" viewBox="0 0 444.8 466.9"><defs><clipPath id="clippath"><polygon points="275.4 381.9 163.4 213.9 163.4 382 7 382 7 7 173.1 7 264.7 163.8 264.7 7 421.1 7 421.1 381.9 275.4 381.9" style="fill:none; stroke-width:0px;"/></clipPath></defs><g id="Layer_1-2"><g id="text"><path d="M42.7,466l-11.8-15.3v15.3H14.4v-34.2h17.5l9.7,14.3v-14.3h16.5v34.2h-15.4Z" style="fill:#fff; stroke-width:0px;"/><path d="M136.2,449.1c0,5.8-2.1,10.9-5.8,13.5-4,2.9-9.8,4.3-17.7,4.3h-.5c-.4-.5-.6-3.7-.5-5.5.7-8,8.4-16.7,5.1-25.7-.7-1.8-3.9-4.8-4.1-5v.1c.1.3,1.1,1.7.9,5.4-.4,8.3-8.8,16.8-5.5,25.7.7,1.8,3.9,4.8,4.1,5-7.5-.1-13.2-1.5-17.1-4.3-3.7-2.7-5.8-7.6-5.8-13.7,0-6.6,2.2-11.4,6.5-14.2,4-2.6,9.8-3.9,16.8-3.9,16.1,0,23.6,5.9,23.6,18.3Z" style="fill:#fff; stroke-width:0px;"/><path d="M197.2,466l-11.8-15.3v15.3h-16.5v-34.2h17.5l9.7,14.3v-14.3h16.5v34.2h-15.4Z" style="fill:#fff; stroke-width:0px;"/><path d="M274.2,466l-1.2-4.4h-11.4l-1.2,4.4h-17.8l10.8-34.2h27.6l10.7,34.2h-17.5ZM267.5,441.5l-3.7,10.8h7.2l-3.5-10.8Z" style="fill:#fff; stroke-width:0px;"/><path d="M329.1,466v-9.8l-14.9-24.4h19.5l4.5,10.4,4.1-10.4h18.9l-14.7,24.4v9.8h-17.4Z" style="fill:#fff; stroke-width:0px;"/><path d="M415.2,466l-1.2-4.4h-11.4l-1.2,4.4h-17.8l10.8-34.2h27.6l10.7,34.2h-17.5ZM408.4,441.5l-3.7,10.8h7.2l-3.5-10.8Z" style="fill:#fff; stroke-width:0px;"/></g><g id="logo"><g style="clip-path:url(#clippath);"><path d="M121.9,257.4c.5.2.9.3,1.4.3,1.6,0,3-.9,3.6-2.5,3.2-8,1.3-21.7,1.1-23.2-.3-2.1-2.3-3.6-4.4-3.3-2.1.3-3.6,2.3-3.3,4.4.5,3.6,1.4,14-.6,19.2-.8,2.1.2,4.3,2.2,5.1Z" style="fill:#fff; stroke-width:0px;"/><path d="M216,272.1c-.1,2.1,1.6,4,3.7,4h.2c4.5,0,6.6-5.7,7.5-8.1,1.1-3,1.8-6,1.8-6.1.5-2.1-.8-4.2-2.9-4.7s-4.2.8-4.7,2.9c-.8,3.4-2.2,7.1-3,8.4-1.4.6-2.5,1.9-2.6,3.6Z" style="fill:#fff; stroke-width:0px;"/><path d="M228.9,230.8c7.4-10.1,20.5-24.4,42.2-36.8h0c31.3,17.1,60.4,25.9,86.5,25.9,47.4,0,72.8-29,73.4-57.7,0-1.6-1-3.1-2.5-3.7-1.5-.6-3.2-.2-4.3,1-10,11.2-22.1,16-40.6,16-7.9,0-16.3-.8-25.2-1.7-9.9-1-20.1-2-30.8-2-12.6,0-24,1.5-34.8,4.5h0c6.2-6.5,13.1-14.6,20.6-24.3h0c50.1-2.2,84-14.8,100.7-37.5,13.5-18.3,11.1-37.2,10-42.6,1.4-2.9,2.6-5.8,3.6-8.9,4.6-13.8,5.9-29.8,3.7-47.5-3.6-29.9-15.6-54.1-16.1-55.1-.9-1.7-2.9-2.6-4.7-2-.4.1-12.5,4.2-25.7,16.2-5.9,5.4-12.5,12.9-18.3,23-4.9,2-21.6,10-36.6,29.5-10.1,13.1-17.4,28.8-21.5,46.5-5,21.6-5.4,46.3-1.1,73.5h0c-11.4,14.6-21.1,25.4-29.1,32.3h0c12.2-41.9,7.9-69.6,3.8-96.5-4.1-26.8-8.5-54.6,3.3-97.8.5-1.7-.3-3.5-1.8-4.4s-3.4-.7-4.7.6c-40,39-59.3,73.7-59.1,106.1.2,28.6,15.6,51.5,29.1,71.7,6.6,9.9,12.9,19.2,17.1,28.7-15.5,9.1-26.8,19-34.8,27.8-1.2-15.2-12.9-27.5-27.8-29.7,6.1-30.3.5-55.4-5.5-71.3-5.7-15.4-12.7-25.3-14.9-28.2-1.6-10.8-4.3-20.6-8.3-29.2-5.1-11.1-12.3-20.2-21.2-27.3-12.9-10.2-25.8-12.9-29.8-13.5-11.1-13.6-29.9-26.6-56.1-38.8-27.9-13-54.4-20.3-54.7-20.3-1.2-.3-2.4-.1-3.4.7-1,.7-1.5,1.9-1.5,3.1,0,.2-.2,23.2,3.1,48.5,3.1,23.8,8.1,41.8,14.9,53.9-2.4,5.3-7.7,20.3-2.1,37.9,4.2,13.1,13.3,24.6,27.4,34.4-.2,4.6,0,15.1,4.4,27.6,4.8,13.7,15.5,32.3,39.8,46.8-5.4,2.3-10.4,5.9-14.3,10.4-6.2,7.2-9.6,16.3-9.6,25.8,0,13.7,7.2,26.4,18.7,33.5-4.4,5.8-7.2,12.8-7.8,20.5-5.6,2.6-20.3,10-36.9,23.3,2.9-7.3,4.8-15.4,5.7-24.3,1.7-16.7,0-36.1-5.1-57.8-8.7-36.6-23.9-66.6-24.5-67.9-.9-1.7-2.8-2.5-4.6-1.9s-2.9,2.4-2.7,4.2c2.4,17.2-3,37.7-8.7,59.4-5.3,20.2-10.8,41-10.1,60.6.7,21.6,8.8,38.5,24.8,51.6-.5.8-1,1.6-1.5,2.5h0c-9.5,11.7-17.2,24.3-22.9,37.6-.8,2,.1,4.3,2.1,5.1.5.2,1,.3,1.5.3,1.5,0,2.9-.9,3.6-2.4,3.4-8.1,7.7-16,12.7-23.6,1.9,13.8,13.8,24.5,28.2,24.5,1.4,0,2.7-.1,4-.3,9.8,6.7,21.8,10.3,35.5,10.7h2.9c11.4,0,23.6-2.2,35.5-6.3,22.6-7.9,40.2-21.4,43.6-33.5.3-1,.1-2.1-.4-3.1-.6-.9-1.5-1.6-2.5-1.8-3.1-.7-6.1-1.3-9.1-2-36.9-8-66.1-14.3-92.1-14.7-4.7-3.6-10.6-5.8-16.9-5.9,15.8-13.8,30.9-22.3,38.4-26,2.8,18.1,18.6,32,37.4,32,7,0,13.5-1.9,19.1-5.2,8.1,8,19,12.5,30.4,12.5,4.5,0,8.9-.7,13.2-2,8.5,22.4,29,37,59.3,42.3,21.6,3.8,41.1,1.6,45,1.1,10.6,2,20.7,3.1,30.1,3.1,22.6,0,41.5-5.9,56.6-17.7,16.4-12.9,23.2-29.2,25.6-36.5,10.2-10.6,17.9-24.7,22.7-41.7,6.4-22.6,5.5-42.3,5.4-43.1-.1-1.1-.6-2.2-1.5-2.9-.9-.7-2.1-1-3.2-.7-1.9.4-38.7,8.1-60.6,21.6-4.6-1.2-17.6-4.1-34-3-15,1-35.2,5.6-53.4,20.8-3.6-.3-12.5-.6-23.8,1.9-10.4,2.3-24.5,7.6-38.4,19.2.2-1.9.4-3.7.4-5.6,0-2.6-.2-5.2-.7-7.7h0c16.5-1.6,29.5-15.6,29.5-32.5,0-11.8-6.2-22.4-16.2-28.2,1.2-1.7,2.2-3.6,3-5.6h0ZM335.9,32.2c8.7-11.4,18.2-18.6,25-22.8-3.5,8.5-6.3,18.3-7.8,29.7-.3,2.1,1.2,4.1,3.4,4.4,2.1.3,4.1-1.2,4.4-3.3,1.8-13.9,5.7-26.2,11.6-37.1.2-.3.4-.6.5-.9,4.5-8.1,10.2-15.3,17-21.5,8.1-7.5,15.9-11.7,20.1-13.6,3.3,7.5,11.1,27,13.8,49.3,2.5,20.7.2,38.3-6.8,52.6h0c-.3.4-.5.8-.6,1.3-5.7,11.1-14.4,20.3-26,27.4-1.8,1.1-2.4,3.5-1.3,5.4.7,1.2,2,1.9,3.3,1.9.7,0,1.4-.2,2-.6,9.2-5.7,16.9-12.6,22.8-20.8-.3,7.1-2.4,16.8-9.3,26.3-6.8,9.2-17.1,16.7-30.7,22.3-15.2,6.3-34.5,10.2-57.6,11.7h0c2.4-3.1,4.7-6.4,7.1-9.7h.7c20.5,0,39.2-13.4,40-14,1.7-1.3,2.1-3.7.9-5.4-1.3-1.7-3.7-2.1-5.4-.9-.2.1-14.4,10.3-30.4,12.2,2.4-3.4,4.8-6.9,7.2-10.4.1-.1.1-.2.2-.3,7-10.2,13.7-20.4,19.9-30.1h0c20.2-4.6,40.2-28.1,41.1-29.1,1.4-1.6,1.2-4.1-.5-5.5-1.6-1.4-4.1-1.2-5.5.5-.2.2-13.6,15.9-28.3,23.3,14.7-23.3,24.9-40.8,25.1-41.1,1.1-1.9.5-4.2-1.4-5.3-1.9-1.1-4.2-.4-5.3,1.4-.3.5-20.2,34.7-44.7,71.3.7-14.9,3.7-29.3,3.8-29.5.5-2.1-.9-4.2-3-4.6s-4.2.9-4.6,3c-.2,1-5,23.6-3.9,42.5h0c-6.1,8.9-12.4,17.8-18.7,26.1-5.4-43.6,2-80.2,21.9-106.1ZM341.8,190.5c-8.5-3.4-35.1-4.4-53.3-4.8,11.9-4.2,24.6-6.3,39-6.3,10.4,0,20.4,1,30.1,2,9.1.9,17.6,1.7,26,1.7,11.4,0,25.3-1.4,38.1-11-5.7,21.1-27.6,39.8-64.1,39.8-21.3,0-45-6.2-70.4-18.5,19.1.3,44.7,1.4,51.8,4.2.5.2,1,.3,1.4.3,1.5,0,3-.9,3.6-2.5.8-1.8-.2-4.1-2.2-4.9ZM255.4,154.9c-13.6-20.2-27.6-41.2-27.8-67.4-.2-27.5,15.1-57.2,46.9-90.6-7.9,37.1-4,62.6-.2,87.3,3.6,23.6,7.1,46.1.3,77.9-1.1-10-3-22.1-5.8-36.4-4.8-24.8-10.3-47.3-10.4-47.5-.5-2.1-2.6-3.4-4.7-2.8-2.1.5-3.4,2.6-2.8,4.7,5,20,15.7,68.4,17,94.6-3.6-6.6-8-13.1-12.5-19.8ZM27,250.2c-2-.9-4.3,0-5.1,2-.2.4-4.3,10-6.4,26.6-1.7,12.9-2.3,32.3,2.6,55.7-23.2-26.3-13.8-62.2-4.7-97.1,4-15.2,7.8-29.8,9.1-43.5,5.1,12.2,11.7,30,16.3,49.5,7.2,30.5,10.7,71.1-11.6,96-6.3-25.1-5.7-45.8-4.1-59.2,2-15.6,5.9-24.7,5.9-24.9.9-1.9,0-4.2-2-5.1ZM152,363.1c1.5.3,2.9.6,4.4,1-5.3,8.7-19.8,18.5-36.9,24.5-22.9,8-45.3,7.8-61.6-.4,5.3-3,9.6-7.6,12.1-13.1,4.1.5,11.7,1.2,20.6,1.2,6.6,0,14-.4,21.1-1.6,2.1-.4,3.5-2.4,3.2-4.5-.4-2.1-2.4-3.5-4.5-3.2-14.5,2.4-30.7,1.3-38.1.5.2-1.4.3-2.7.3-4.1,0-5.3-1.4-10.2-4-14.5,23.5,1.3,50.4,7.1,83.4,14.2ZM57.3,347.4h0c.2.1.3.3.5.4,4.3,3.8,7,9.3,7,15.5,0,2.2-.3,4.2-.9,6.2-2.2,7-8.1,12.4-15.3,14-.2,0-.3.1-.5.1-1.2.2-2.6.4-3.9.4-11.4,0-20.7-9.3-20.7-20.6,0-7,3.5-13.2,8.9-17h0c.2-.1.3-.2.5-.4h0c3.2-2.1,7.1-3.3,11.2-3.3,5,0,9.6,1.8,13.2,4.7ZM198.7,193.4s.1,0,0,0c13.8,0,24.9,11.2,24.9,24.9,0,3.2-.6,6.2-1.7,9.1h0c0,.1-.1.2-.1.3-.8,2-1.9,3.9-3.2,5.6-3-.9-6-1.3-9.1-1.3-1.6,0-3.2.1-4.8.4-2.1-10.4-8.3-19.4-17.4-25.2-2.6-1.7-5.4-3-8.2-4,1.9-2.5,4.2-4.5,6.9-6.2,3.8-2.3,8.2-3.5,12.7-3.6-.1,0,0,0,0,0ZM149.5,238.1c-1.4-6.4-4.3-12.2-8.5-17.2,6-7.7,15.1-12.2,24.9-12.2,2.1,0,4.1.2,6.1.6h.2c3.9.8,7.4,2.2,10.7,4.4,8.2,5.3,13.5,13.8,14.4,23.5h0v.1h0c.1,1,.1,2,.1,2.9,0,2-.2,4-.6,5.9-1.4,7.3-5.2,13.7-10.9,18.4-1.4-.6-2.9-1.1-4.4-1.5-3.8-1.1-7.8-1.6-11.8-1.6-7.4,0-14.6,1.9-21,5.4-1.1-.7-2.1-1.4-3.1-2.2,2.9-5.6,4.5-11.9,4.5-18.3.3-2.7,0-5.5-.6-8.2ZM135.4,215.5c-2.4-1.9-5-3.5-7.8-4.8-.3-1.9-.5-3.9-.5-5.9,0-10.2,4.2-19.8,11.4-25.7.6-.2,1.2-.6,1.7-1.1.1-.1.2-.2.3-.4,4.2-2.9,9-4.4,13.9-4.4h0c10.9,0,20.6,7.5,24.9,18.8-3.4,2.5-6.2,5.6-8.4,9.2-1.6-.2-3.2-.3-4.9-.3-12,.1-23.1,5.4-30.6,14.6ZM63.3,161.2c-2.9-8.2-3.8-15.5-4.1-20.4,3.2,1.9,6.6,3.7,10.2,5.4.5.3,1.1.4,1.7.4,1.4,0,2.8-.8,3.5-2.2.9-1.9.1-4.3-1.8-5.2-5.5-2.6-10.4-5.4-14.9-8.4-.2-.1-.4-.3-.6-.4h0c-13.4-9-22-19.4-25.8-31.2-1.6-4.8-2.1-9.4-2.1-13.6,0-5.7,1.1-10.6,2.2-14.2,1.7,2,3.4,3.7,5.2,5.1.7.6,1.6.8,2.4.8,1.2,0,2.3-.5,3.1-1.5,1.3-1.7,1-4.1-.7-5.5-2.7-2.1-5.2-5-7.5-8.7-.1-.2-.2-.4-.3-.5h0c-6.7-11-11.7-28.8-14.8-52.3-2.3-17.7-2.9-34.3-3-42.4,8.8,2.7,28.3,9,48.5,18.4C99.9,1.3,121.5,19.6,126.7,37.6c.6,2.1,2.8,3.2,4.8,2.6,2.1-.6,3.2-2.8,2.6-4.8-.9-3.1-2.2-6.2-3.8-9.2,5,1.7,11.7,4.7,18.5,10,18.1,14.2,27.8,38.6,28,70.3,0,2.1,1.8,3.9,3.9,3.9h0c2.1,0,3.9-1.8,3.9-3.9,0-1,0-2-.1-3,2.1,4,4.3,8.8,6.4,14.3,5.6,15.2,10.9,39.2,4.7,68.1-3.3.3-6.4,1.1-9.5,2.4-5.1-12.3-15.5-20.8-27.5-22.4.5-11.8-3.8-26.2-12.9-43.2,8.6-25.5-4.3-59.2-4.8-60.7-.8-2-3-3-5-2.2s-3,3-2.2,5c.1.3,10.1,26.2,6.5,48.1-8.2-13.6-19.2-28.7-32.9-45.2C79.9,34.8,51.3,8,51,7.8c-1.6-1.5-4-1.4-5.5.2s-1.4,4,.2,5.5c.3.3,28.6,26.7,55.6,59.2.7.9,1.4,1.7,2.1,2.6-12.4-.9-28.2-10.6-34.2-15-1.7-1.3-4.2-.9-5.4.8-1.3,1.7-.9,4.2.8,5.4,1,.8,22.8,16.6,40.7,16.6,1.4,0,2.8-.1,4.1-.3,8.6,10.9,15.8,21,21.8,30.5-27.8,5.6-67.1-13.5-67.5-13.7-1.9-.9-4.3-.2-5.2,1.8s-.2,4.3,1.8,5.2c1.6.8,31.8,15.5,59.7,15.5,5.3,0,10.6-.5,15.5-1.8.9,1.5,1.7,3,2.5,4.4h0c.1.1.1.2.2.4,8.9,16.3,13.2,30,12.7,40.7-4.8.5-9.3,2.1-13.4,4.7l-23.8-21-5.1,5.8,22.8,20c-7.5,7.4-11.8,18.1-11.8,29.5,0,1,0,2.1.1,3.1-2.8-.6-5.6-.9-8.5-.9-1.5,0-3.1.1-4.6.3-21.9-11-36.4-26.5-43.3-46.1ZM79.4,246.5c0-15.5,11.6-29,26.9-31.3,1.6-.2,3.1-.4,4.7-.4,4,0,7.9.7,11.6,2.2q.1,0,.2.1h.1c3.8,1.5,7.3,3.8,10.3,6.8l.1.1.1.1c4.3,4.3,7.3,9.7,8.6,15.7.5,2.2.7,4.4.7,6.7,0,6-1.7,11.9-4.9,16.9v.1c-1,1.5-2.1,3-3.3,4.4-4.3-1.7-9-2.7-14-2.7-9.4,0-17.9,3.4-24.6,9-10.1-5.6-16.5-16.2-16.5-27.7ZM142.1,271.7q-.1.1-.2.2c-.2-.1-.3-.2-.5-.4.1-.1.1-.2.2-.2.2.1.4.2.5.4ZM120.4,333.1c-16.6,0-30.1-13.5-30.1-30.1s13.5-30.1,30.1-30.1c4.6,0,9,1,12.9,2.9.1.1.3.1.4.2h0c9.9,4.9,16.8,15.2,16.8,27,0,16.6-13.5,30.1-30.1,30.1ZM183.9,337.6c-4.4,1.9-9.1,2.9-14,2.9-9,0-17.6-3.4-24.1-9.4,7.6-6.9,12.4-16.9,12.4-28,0-10.1-3.9-19.2-10.4-26,1-.8,2.1-1.5,3.1-2.2,0,0,.1,0,.1-.1,5.6-3.5,12.1-5.4,18.8-5.4,3.3,0,6.6.5,9.7,1.4,1.9.5,3.6,1.2,5.3,2,.1,0,.1.1.2.1,9,4.3,15.9,12.2,18.8,21.8,1,3.4,1.5,6.9,1.5,10.4,0,6.4-1.7,12.6-4.9,18-1.2,2.1-2.8,4.2-4.5,6.1h0l-.1.1h0v.1c0,.1,0,0-.1.1h0c-3.3,3.5-7.2,6.2-11.6,8.1-.1-.1-.1,0-.2,0ZM252.7,299c5.5-1.3,10.4-1.8,14.3-1.9-1.6,1.7-3.2,3.5-4.8,5.4-1.4,1.7-1.1,4.1.6,5.5.7.6,1.6.9,2.5.9,1.1,0,2.2-.5,3-1.4,3.2-4,6.7-7.5,10.3-10.8h0c.2-.2.4-.3.5-.5,13.7-11.8,30.3-18.4,49.6-19.8,2.4-.2,4.7-.2,6.9-.2,7.5,0,13.9.8,18.6,1.6-1.6,1.5-3,3-4.2,4.6-1.3,1.7-.9,4.2.8,5.4,1.7,1.3,4.2.9,5.4-.8,2-2.7,5.1-5.4,8.9-7.8h.1c14.9-9.7,40.6-17.2,54.9-20.5-.1,7-1,21.1-5.2,36.2-4.5,16-11.5,28.9-20.9,38.5h0c-.3.2-.6.5-.9.9-6.9,6.9-15.1,12-24.5,15.4-2,.7-3.1,3-2.3,5,.6,1.6,2.1,2.6,3.7,2.6.4,0,.9-.1,1.3-.2,5.3-1.9,10.2-4.3,14.9-7.3-3.6,6.2-9,13.1-16.8,19.2-19.5,15.3-46.8,19.7-81,13-.4-.1-.9-.1-1.3,0-.2,0-21,2.9-43.4-1-27.9-4.9-45.8-17.5-53.3-37.6,3-1.6,5.7-3.5,8.3-5.7,25.9,27.4,51,27.8,52.1,27.8,2.1,0,3.9-1.7,3.9-3.9s-1.7-3.9-3.9-3.9c-.2,0-20.2-.4-42-20.9,10.5.8,20.9,1.1,31,1.1,4.5,0,9-.1,13.4-.2,37.2,27.4,73.7,27.7,75.3,27.7,2.1,0,3.9-1.7,3.9-3.9s-1.7-3.9-3.9-3.9c-.3,0-30.2-.3-62.4-20.6,6.3-.4,12.4-1,18.5-1.8h.8c.8-.1,1.6-.2,2.4-.3,20.7-2.8,40-7.4,57.5-13.7,31.1-11.3,45.5-24.1,46.1-24.7,1.6-1.4,1.7-3.9.3-5.5s-3.9-1.7-5.5-.3c-.1.1-13.8,12.3-43.5,23.1-8,2.9-17.7,5.9-29.1,8.5,2.8-2.5,5.5-5.3,7.9-8.5,7.4-9.5,10.7-18.5,10.8-18.9.7-2-.3-4.2-2.4-5-2-.7-4.2.3-5,2.4-.1.3-10.9,29.5-36.9,34.6-22.5,3.1-49.7,4.3-81.6,1.9.3-.5.6-1,.9-1.5,12.4-14.8,27.8-24.3,45.4-28.3ZM234.3,264.7c0,13.4-10.6,24.3-23.8,24.9-3.3-8.6-9.2-16-17-21,5.8-5.6,9.7-12.8,11.2-20.8.5-2.4.7-4.9.7-7.4v-.2c1.3-.2,2.7-.3,4-.3,3.1,0,6.1.6,9,1.7h.2c9.5,3.7,15.7,12.8,15.7,23.1Z" style="fill:#fff; stroke-width:0px;"/><path d="M135.2,296.2c-2.1.5-3.4,2.6-2.9,4.7,0,.1,2.2,9.9-4.3,14.8-1.7,1.3-2.1,3.7-.8,5.4.8,1,1.9,1.5,3.1,1.5.8,0,1.6-.2,2.3-.8,10.5-7.9,7.3-22.2,7.2-22.8-.4-2-2.5-3.3-4.6-2.8Z" style="fill:#fff; stroke-width:0px;"/><path d="M41.3,359c2.5,2.8,6.1,8.7,4.2,10.6-1.5,1.5-1.6,4-.1,5.5.8.8,1.8,1.2,2.8,1.2s2-.4,2.7-1.1c6.5-6.3.6-16.4-3.9-21.4-1.4-1.6-3.9-1.7-5.5-.3-1.6,1.4-1.7,3.9-.2,5.5Z" style="fill:#fff; stroke-width:0px;"/></g><path id="_3d" d="M423.39,0h-165.69v121.65L195.01,14.42,175.4,0H0v385.46l21.42,15.64h165.68v-139.07l83.16,124.78,19.44,14.29h155.1V15.65l-21.41-15.65ZM173.1,219.34l-14.7-22.06v179.62H14V14h156.8l.87.64,98.02,167.61v-12.33,3.42V14h146.4v362.9h-135.62l-107.38-157.56Z" style="fill:#fff; stroke-width:0px;"/></g></g></svg>