<?xml version="1.0" encoding="utf-8"?>
<!-- Generator: Adobe Illustrator 27.9.0, SVG Export Plug-In . SVG Version: 6.00 Build 0)  -->
<svg version="1.1" id="Layer_1" xmlns="http://www.w3.org/2000/svg" xmlns:xlink="http://www.w3.org/1999/xlink" x="0px" y="0px"
	 viewBox="0 0 2568.4 804.4" style="enable-background:new 0 0 2568.4 804.4;" xml:space="preserve">
<g id="text">
	<path id="N" style="fill:#FFFFFF;" d="M784.2,460.3l-46.2-59.6v59.6h-64.6V327.4h68.5l37.9,55.6v-55.6h64.6v132.9H784.2z"/>
	<path id="O_00000102540628432963719730000011824066687939021485_" style="display:none;fill:#FFFFFF;" d="M1152.9,394.7c0,22.7-8.4,42.2-22.7,52.6
		c-15.5,11.2-38.5,16.7-69.2,16.7c-30.5,0-53.4-5.6-69-16.7c-14.5-10.6-22.7-29.7-22.7-53.4c0-25.5,8.8-44.4,25.3-55
		c15.7-10.2,38.3-15.3,66-15.3C1123.4,323.6,1152.9,346.3,1152.9,394.7z M1038.3,394.3c0,20.9,7.6,31.3,22.7,31.3
		c15.1,0,22.9-10.6,22.9-31.1c0-17.1-7.8-25.9-22.9-25.9C1046.3,368.6,1038.3,377.6,1038.3,394.3z"/>
	<g id="O">
		<path style="fill:#FFFFFF;" d="M1151.9,393.8c0,22.4-8.3,41.8-22.5,52c-15.4,11-38,16.6-68.4,16.6c-0.6,0-1.2,0-1.9,0h0
			c-1.4-1.9-2.3-14.4-1.7-20.9c2.6-30.7,32.4-64.2,19.6-98.5c-2.6-7-15.1-18.5-15.8-19.3c0,0.1,0.1,0.3,0.1,0.4
			c0.3,1,4.1,6.6,3.5,20.5c-1.4,31.7-34.1,64.5-21.4,98.5c2.6,7,15.1,18.5,15.8,19.3c-29.2-0.2-51.2-5.7-66.3-16.5
			c-14.4-10.4-22.5-29.4-22.5-52.8c0-25.2,8.7-43.9,25-54.4c15.5-10,37.8-15.2,65.2-15.2C1122.7,323.5,1151.9,346,1151.9,393.8z"/>
	</g>
	<path id="N_00000133511239842453432660000011163629191644610725_" style="fill:#FFFFFF;" d="M1388.6,460.3l-46.2-59.6v59.6h-64.6V327.4h68.6
		l37.9,55.6v-55.6h64.6v132.9H1388.6z"/>
	<path id="A" style="fill:#FFFFFF;" d="M1689.6,460.3l-4.8-17.1h-44.4l-4.8,17.1h-69.7l42.4-132.9h108.2l41.8,132.9H1689.6z M1663.1,364.8
		l-14.3,42h28.1L1663.1,364.8z"/>
	<path id="Y" style="fill:#FFFFFF;" d="M1903.9,460.3V422l-58.2-94.6h76.3l17.5,40.2l15.9-40.2h73.9l-57.4,94.6v38.3H1903.9z"/>
	<path id="A_00000121246088092464604690000014771239862092781445_" style="fill:#FFFFFF;" d="M2240.5,460.3l-4.8-17.1h-44.4l-4.8,17.1h-69.7
		l42.4-132.9h108.2l41.9,132.9H2240.5z M2214,364.8l-14.4,42h28.1L2214,364.8z"/>
</g>
<polygon id="_x33_d" style="fill:#FFFFFF;stroke:#FFFFFF;stroke-width:14;stroke-miterlimit:10;" points="552.5,219.9 411.7,219.9 411.7,346.4 344.2,230.9 329.2,219.9 179.7,219.9 179.7,557.4 
	194.7,568.4 335.5,568.4 335.5,428.6 421.3,557.4 436.3,568.4 567.5,568.4 567.5,230.9 "/>
<g id="logo">
	<g>
		<g>
			<g>
				<defs>
					<polygon id="SVGID_00000036253880705835630980000010812687737293449126_" points="421.3,557.4 320.5,406.1 320.5,557.4 
						179.7,557.4 179.7,219.9 329.2,219.9 411.7,361.1 411.7,219.9 552.5,219.9 552.5,557.4 					"/>
				</defs>
				<clipPath id="SVGID_00000044868583777013392760000014480220799016736386_">
					<use xlink:href="#SVGID_00000036253880705835630980000010812687737293449126_"  style="overflow:visible;"/>
				</clipPath>
				<g style="clip-path:url(#SVGID_00000044868583777013392760000014480220799016736386_);">
					<rect x="146.4" y="151.9" style="stroke:#FFFFFF;stroke-miterlimit:10;" width="437.4" height="437.4"/>
					<g>
						<path style="fill:#A31E21;stroke:#FFFFFF;stroke-miterlimit:10;" d="M293.8,462.1L293.8,462.1C293.8,462.1,293.8,462.1,293.8,462.1c-0.1-0.1-0.2-0.1-0.4-0.2
							c-3.5-1.7-7.5-2.6-11.6-2.6c-15,0-27.1,12.2-27.1,27.1c0,15,12.2,27.1,27.1,27.1c15,0,27.1-12.2,27.1-27.1
							C308.9,475.7,302.7,466.5,293.8,462.1z M292.8,503.4c-0.6,0.5-1.4,0.7-2.1,0.7c-1.1,0-2.1-0.5-2.8-1.4
							c-1.2-1.5-0.9-3.7,0.7-4.9c5.9-4.4,3.9-13.2,3.9-13.3c-0.4-1.9,0.7-3.8,2.6-4.2c1.9-0.4,3.8,0.7,4.2,2.6
							C299.4,483.4,302.3,496.2,292.8,503.4z"/>
						<path style="fill:#046937;stroke:#FFFFFF;stroke-miterlimit:10;" d="M349.4,380.9c-2.9,0.3-5.8,1-8.5,2.1c-4.6-11.1-13.9-18.7-24.7-20.2c0.4-10.6-3.5-23.6-11.6-38.9
							c7.8-23-3.8-53.3-4.4-54.6c-0.7-1.8-2.7-2.7-4.5-2s-2.7,2.7-2,4.5c0.1,0.3,9.1,23.6,5.9,43.3c-7.4-12.3-17.3-25.9-29.6-40.7
							c-24.6-29.6-50.4-53.7-50.7-54c-1.4-1.3-3.6-1.2-4.9,0.2c-1.3,1.4-1.2,3.6,0.2,4.9c0.3,0.2,25.8,24,50.1,53.3
							c0.6,0.8,1.3,1.6,1.9,2.4c-11.1-0.8-25.4-9.6-30.8-13.5c-1.6-1.1-3.7-0.8-4.9,0.8c-1.1,1.6-0.8,3.7,0.8,4.9
							c0.9,0.7,20.5,14.9,36.7,14.9c1.3,0,2.5-0.1,3.7-0.3c7.7,9.8,14.2,18.9,19.6,27.5c-25,5.1-60.4-12.1-60.7-12.3
							c-1.7-0.9-3.8-0.1-4.7,1.6c-0.9,1.7-0.1,3.8,1.6,4.7c1.4,0.7,28.6,14,53.7,14c4.8,0,9.5-0.5,13.9-1.6c0.8,1.3,1.5,2.7,2.2,4
							c0,0,0,0,0,0c0,0.1,0.1,0.2,0.2,0.3c8,14.7,11.9,27,11.4,36.6c-4.3,0.5-8.4,1.9-12.1,4.3l-21.4-18.9l-4.6,5.3l20.5,18
							c-6.7,6.7-10.6,16.3-10.6,26.6c0,0.9,0,1.9,0.1,2.8c-2.5-0.5-5-0.8-7.6-0.8c-1.4,0-2.8,0.1-4.1,0.2
							c-19.5-9.9-32.6-23.9-38.8-41.5c-2.6-7.4-3.4-14-3.6-18.4c2.9,1.7,5.9,3.3,9.2,4.9c0.5,0.2,1,0.3,1.5,0.3c1.3,0,2.6-0.7,3.2-2
							c0.8-1.8,0.1-3.8-1.6-4.7c-4.9-2.4-9.4-4.9-13.4-7.5c-0.2-0.1-0.4-0.3-0.6-0.4l0,0c-12-8.1-19.8-17.5-23.2-28.1
							c-1.4-4.3-1.9-8.5-1.9-12.3c0-5.1,0.9-9.6,1.9-12.8c1.5,1.8,3.1,3.3,4.7,4.6c0.6,0.5,1.4,0.7,2.1,0.7c1,0,2.1-0.5,2.8-1.4
							c1.2-1.5,0.9-3.7-0.6-4.9c-2.4-1.9-4.7-4.5-6.8-7.9c-0.1-0.2-0.2-0.3-0.3-0.5l0,0c-6-9.9-10.5-25.9-13.3-47.1
							c-2.1-16-2.6-30.9-2.7-38.2c7.9,2.4,25.5,8.1,43.6,16.6c31.9,14.9,51.3,31.3,56,47.5c0.5,1.9,2.5,2.9,4.4,2.4
							c1.9-0.5,2.9-2.5,2.4-4.4c-0.8-2.8-2-5.5-3.4-8.3c4.5,1.5,10.6,4.2,16.6,9c16.3,12.8,25,34.7,25.2,63.3c0,1.9,1.6,3.5,3.5,3.5
							h0c1.9,0,3.5-1.6,3.5-3.5c0-0.9,0-1.8,0-2.7c1.9,3.6,3.9,7.9,5.7,12.9C350.2,333.2,354.9,354.8,349.4,380.9z"/>
						<path style="fill:#A31E21;stroke:#FFFFFF;stroke-miterlimit:10;" d="M334.8,386.5c-3,2.2-5.6,5-7.6,8.3c-1.4-0.2-2.9-0.3-4.4-0.3c-10.8,0-20.8,4.8-27.5,13.1
							c-2.2-1.7-4.5-3.2-7-4.3c-0.3-1.8-0.4-3.5-0.4-5.3c0-9.2,3.8-17.8,10.2-23.1c0.6-0.2,1.1-0.5,1.5-1c0.1-0.1,0.2-0.2,0.3-0.3
							c3.8-2.6,8.1-4,12.5-4l0,0C322.1,369.6,330.9,376.3,334.8,386.5z"/>
						<path style="fill:#046937;stroke:#FFFFFF;stroke-miterlimit:10;" d="M551.5,446.4c-0.1,6.3-0.9,19-4.7,32.6c-4.1,14.4-10.4,26-18.8,34.7c0,0,0,0,0,0
							c-0.3,0.2-0.6,0.5-0.8,0.8c-6.2,6.2-13.6,10.8-22,13.8c-1.8,0.7-2.8,2.7-2.1,4.5c0.5,1.4,1.9,2.3,3.3,2.3
							c0.4,0,0.8-0.1,1.2-0.2c4.7-1.7,9.2-3.9,13.4-6.6c-3.3,5.5-8.1,11.8-15.1,17.3c-17.6,13.8-42.1,17.7-72.9,11.7
							c-0.4-0.1-0.8-0.1-1.2,0c-0.2,0-18.9,2.6-39.1-0.9c-25.1-4.4-41.2-15.8-48-33.8c2.7-1.4,5.2-3.1,7.4-5.1
							c23.3,24.7,45.9,25,46.9,25c1.9,0,3.5-1.6,3.5-3.5c0-1.9-1.6-3.5-3.5-3.5c-0.2,0-18.2-0.4-37.8-18.8c9.5,0.7,18.8,1,27.9,1
							c4.1,0,8.1-0.1,12.1-0.2c33.5,24.7,66.4,25,67.8,25c1.9,0,3.5-1.6,3.5-3.5c0-1.9-1.6-3.5-3.5-3.5c-0.3,0-27.2-0.2-56.2-18.5
							c5.7-0.4,11.4-0.9,16.9-1.6c0.9-0.1,1.7-0.2,2.5-0.3c18.6-2.5,36-6.6,51.7-12.3c28-10.2,41-21.7,41.5-22.2
							c1.4-1.3,1.5-3.5,0.2-4.9s-3.5-1.5-4.9-0.2c-0.1,0.1-12.5,11.1-39.2,20.8c-7.2,2.6-16,5.3-26.2,7.6c2.5-2.2,4.9-4.8,7.1-7.7
							c6.7-8.5,9.6-16.6,9.7-17c0.6-1.8-0.3-3.8-2.1-4.5c-1.8-0.6-3.8,0.3-4.5,2.1c-0.1,0.3-9.8,26.6-33.2,31.1
							c-20.3,2.8-44.7,3.9-73.4,1.7c0.3-0.4,0.6-0.9,0.8-1.3c11.4-13.2,25.2-21.7,41-25.4c5-1.1,9.4-1.6,12.9-1.7
							c-1.5,1.5-2.9,3.2-4.3,4.9c-1.2,1.5-1,3.7,0.5,4.9c0.6,0.5,1.4,0.8,2.2,0.8c1,0,2-0.4,2.7-1.3c2.9-3.6,6-6.8,9.3-9.7l0,0
							c0.2-0.1,0.3-0.3,0.5-0.4c12.3-10.6,27.3-16.6,44.7-17.8c2.1-0.1,4.2-0.2,6.2-0.2c6.7,0,12.5,0.7,16.7,1.5
							c-1.5,1.3-2.8,2.7-3.8,4.1c-1.1,1.6-0.8,3.7,0.8,4.9c1.6,1.1,3.7,0.8,4.9-0.8c1.8-2.5,4.6-4.8,8-7c0,0,0,0,0,0
							C515.5,456.1,538.7,449.4,551.5,446.4z"/>
						<path style="fill:#046937;stroke:#FFFFFF;stroke-miterlimit:10;" d="M549,288.9c-0.3,6.4-2.1,15.1-8.4,23.6c-6.1,8.3-15.4,15-27.6,20.1c-14.6,6-33.5,9.7-56.2,10.8
							c-6.2-41.6,0.3-76.4,19-100.8c7.8-10.2,16.4-16.7,22.5-20.5c-3.1,7.6-5.6,16.5-7,26.8c-0.2,1.9,1.1,3.7,3,3.9
							c1.9,0.2,3.7-1.1,3.9-3c1.6-12.5,5.1-23.6,10.4-33.4c0.2-0.2,0.4-0.5,0.5-0.8c4.1-7.3,9.2-13.8,15.3-19.4
							c7.3-6.8,14.3-10.5,18.1-12.2c3,6.8,10,24.3,12.4,44.4c2.3,18.6,0.2,34.5-6.1,47.4l0,0c-0.3,0.3-0.5,0.7-0.6,1.1
							c-5.2,10-13,18.3-23.4,24.7c-1.7,1-2.2,3.2-1.2,4.8c0.7,1.1,1.8,1.7,3,1.7c0.6,0,1.2-0.2,1.8-0.5
							C536.8,302.4,543.6,296.2,549,288.9z"/>
						<path style="fill:#046937;stroke:#FFFFFF;stroke-miterlimit:10;" d="M416.8,374.7c-3.8-7.2-8.5-14.3-13.5-21.6c-12.2-18.2-24.8-37.1-25-60.7c-0.2-24.7,13.6-51.5,42.2-81.5
							c-7.1,33.4-3.6,56.3-0.1,78.5C424.2,314.2,427.9,337.7,416.8,374.7z"/>
						<path style="fill:#046937;stroke:#FFFFFF;stroke-miterlimit:10;" d="M553,368.6c-5.1,19-24.8,35.9-57.7,35.9c-21.2,0-44.9-6.8-70.4-20.2c13-6.2,27-9.1,43.4-9.1
							c9.3,0,18.3,0.9,27.1,1.8c8.2,0.8,15.9,1.6,23.4,1.6C528.9,378.5,541.5,377.2,553,368.6z"/>
						<path style="fill:#046937;stroke:#FFFFFF;stroke-miterlimit:10;" d="M197.8,519.1c-5.7-22.6-5.2-41.3-3.6-53.3c1.8-14,5.3-22.3,5.3-22.4c0.8-1.8-0.1-3.8-1.8-4.6
							c-1.8-0.8-3.8,0-4.6,1.8c-0.1,0.4-3.9,9-5.8,24c-1.5,11.6-2.1,29.1,2.4,50.1c-20.9-23.6-12.4-56-4.2-87.4
							c3.6-13.7,7-26.8,8.2-39.1c4.6,11,10.6,27,14.7,44.5C214.8,460.2,217.9,496.8,197.8,519.1z"/>
						<path style="fill:#A31E21;stroke:#FFFFFF;stroke-miterlimit:10;" d="M374.7,410.1c0,2.9-0.5,5.6-1.6,8.2c0,0,0,0,0,0c0,0.1-0.1,0.2-0.1,0.3c-0.7,1.8-1.7,3.5-2.9,5
							c-2.7-0.8-5.4-1.2-8.2-1.2c-1.5,0-2.9,0.1-4.3,0.3c-1.9-9.3-7.5-17.5-15.6-22.7c-2.3-1.5-4.8-2.7-7.4-3.6
							c1.7-2.2,3.8-4.1,6.2-5.5c3.4-2.1,7.4-3.2,11.4-3.2c0,0,0.1,0,0.1,0c0,0,0,0,0.1,0C364.7,387.8,374.7,397.8,374.7,410.1z"/>
						<path style="fill:#A31E21;stroke:#FFFFFF;stroke-miterlimit:10;" d="M225.4,526.7c-0.1-0.1-0.3-0.2-0.4-0.3c0,0,0,0,0,0c-3.2-2.7-7.3-4.2-11.8-4.2c-3.7,0-7.2,1.1-10.1,3
							c0,0,0,0,0,0c-0.1,0.1-0.3,0.2-0.5,0.3l0,0c0,0,0,0,0,0c-4.8,3.4-8,9-8,15.3c0,10.2,8.3,18.6,18.6,18.6c1.2,0,2.4-0.1,3.5-0.3
							c0.1,0,0.3-0.1,0.5-0.1c6.5-1.4,11.8-6.3,13.8-12.6c0.6-1.8,0.9-3.7,0.9-5.6C231.7,535.1,229.3,530.1,225.4,526.7z
							 M219.2,551.3c-0.7,0.7-1.6,1-2.4,1c-0.9,0-1.8-0.3-2.5-1.1c-1.4-1.4-1.3-3.6,0.1-5c1.7-1.7-1.5-7-3.8-9.5
							c-1.3-1.4-1.2-3.7,0.2-4.9s3.6-1.2,4.9,0.2C219.8,536.5,225.1,545.6,219.2,551.3z"/>
						<path style="fill:#046937;stroke:#FFFFFF;stroke-miterlimit:10;" d="M314.2,541.4c-4.7,7.8-17.8,16.6-33.2,22c-20.6,7.2-40.8,7-55.4-0.3c4.8-2.7,8.6-6.8,10.9-11.8
							c3.6,0.4,10.5,1.1,18.5,1.1c6,0,12.6-0.3,19-1.4c1.9-0.3,3.2-2.1,2.9-4c-0.3-1.9-2.1-3.2-4-2.9c-13.1,2.2-27.6,1.1-34.3,0.4
							c0.2-1.2,0.3-2.5,0.3-3.7c0-4.8-1.3-9.2-3.6-13c21.2,1.2,45.3,6.5,75.1,12.9C311.5,540.8,312.8,541.1,314.2,541.4z"/>
						<path style="fill:#A31E21;stroke:#FFFFFF;stroke-miterlimit:10;" d="M357,478.7c-2.6-8.6-8.8-15.7-16.9-19.6c-0.1,0-0.1,0-0.2-0.1c-1.5-0.7-3.1-1.3-4.8-1.8
							c-2.8-0.8-5.8-1.2-8.8-1.2c-6,0-11.9,1.7-16.9,4.8c0,0,0,0-0.1,0c-1,0.6-1.9,1.3-2.8,2c5.8,6.1,9.3,14.4,9.3,23.4
							c0,10-4.3,19-11.2,25.2c5.9,5.4,13.6,8.5,21.7,8.5c4.4,0,8.6-0.9,12.6-2.6c0,0,0.1,0,0.1-0.1c4-1.7,7.5-4.2,10.5-7.3
							c0,0,0,0,0,0c0,0,0,0,0-0.1c0,0,0,0,0,0c0,0,0,0,0,0c0,0,0,0,0,0c0,0,0,0,0,0c0,0,0.1-0.1,0.1-0.1c0,0,0,0,0,0
							c1.6-1.7,2.9-3.6,4.1-5.5c2.9-4.9,4.4-10.5,4.4-16.2C358.4,484.9,357.9,481.7,357,478.7z M348.4,497.2
							c-0.5,1.4-1.9,2.3-3.3,2.3c-0.4,0-0.8-0.1-1.2-0.2c-1.8-0.7-2.7-2.7-2-4.5c4.1-11-3.6-18.5-3.9-18.8c-1.4-1.3-1.5-3.5-0.1-4.9
							c1.3-1.4,3.5-1.5,4.9-0.1C343.2,471.3,354.2,481.8,348.4,497.2z"/>
						<path style="fill:#A31E21;stroke:#FFFFFF;stroke-miterlimit:10;" d="M351.1,427.4C351.1,427.4,351.1,427.3,351.1,427.4c0-0.1,0-0.1,0-0.1c0,0,0,0,0,0v0
							c-0.9-8.7-5.6-16.4-13-21.2c-3-1.9-6.2-3.2-9.7-3.9c0,0,0,0-0.1,0c0,0-0.1,0-0.1,0c-1.8-0.4-3.6-0.5-5.5-0.5
							c-8.9,0-17.1,4.1-22.5,11c3.8,4.5,6.4,9.8,7.6,15.5c0.5,2.4,0.8,4.9,0.8,7.5c0,5.8-1.4,11.4-4,16.5c0.9,0.7,1.8,1.4,2.8,2
							c5.7-3.2,12.2-4.9,18.9-4.9c3.6,0,7.2,0.5,10.6,1.5c1.4,0.4,2.7,0.8,3.9,1.3c5.1-4.2,8.6-10,9.8-16.6c0.3-1.8,0.5-3.5,0.5-5.3
							C351.3,429.2,351.2,428.3,351.1,427.4z M339.2,437.8c-0.6,1.4-1.9,2.2-3.2,2.2c-0.5,0-0.9-0.1-1.3-0.3
							c-1.8-0.8-2.6-2.8-1.9-4.6c0.8-1.8-0.1-9-1.3-14.6c-0.4-1.9,0.8-3.8,2.6-4.2c1.9-0.4,3.8,0.8,4.2,2.6
							C339,422.2,341.2,433,339.2,437.8z"/>
						<path style="fill:#A31E21;stroke:#FFFFFF;stroke-miterlimit:10;" d="M301.2,429.5c-1.1-5.3-3.8-10.2-7.7-14.1c0,0,0,0,0,0c0,0-0.1-0.1-0.1-0.1c-2.7-2.6-5.8-4.7-9.2-6.1
							c0,0-0.1,0-0.1,0s-0.1,0-0.1-0.1c-3.3-1.3-6.8-2-10.4-2c-1.4,0-2.8,0.1-4.2,0.3c-13.8,2-24.2,14.1-24.2,28.1
							c0,10.4,5.7,20,14.8,24.9c6-5.1,13.7-8.1,22.1-8.1c4.4,0,8.7,0.9,12.6,2.4c1.1-1.2,2.1-2.5,3-3.9c0,0,0,0,0,0
							c2.9-4.5,4.4-9.8,4.4-15.2C301.8,433.4,301.6,431.4,301.2,429.5z M287.6,443.4c-0.5,1.4-1.9,2.2-3.3,2.2
							c-0.4,0-0.9-0.1-1.3-0.2c-1.8-0.7-2.7-2.8-2-4.5c1.9-4.7,1-14.1,0.6-17.3c-0.3-1.9,1-3.7,3-4c1.9-0.3,3.7,1,4,3
							C288.8,423.9,290.5,436.1,287.6,443.4z"/>
						<path style="fill:#A31E21;stroke:#FFFFFF;stroke-miterlimit:10;" d="M370.2,431.1C370.1,431,370.1,431,370.2,431.1C370,431,370,431,370,431c-2.6-1-5.3-1.5-8.1-1.5
							c-1.2,0-2.4,0.1-3.6,0.3c0,0.1,0,0.1,0,0.2c0,2.2-0.2,4.5-0.6,6.6c-1.4,7.2-4.9,13.7-10.1,18.7c6.9,4.5,12.3,11.1,15.3,18.9
							c11.9-0.5,21.4-10.4,21.4-22.4C384.3,442.6,378.7,434.5,370.2,431.1z M378.1,454.9c-0.8,2.2-2.7,7.3-6.7,7.3
							c-0.1,0-0.1,0-0.2,0c-1.9-0.1-3.4-1.7-3.4-3.6c0.1-1.5,1-2.7,2.4-3.2c0.8-1.1,2-4.5,2.7-7.6c0.4-1.9,2.3-3,4.2-2.6
							c1.9,0.4,3,2.3,2.6,4.2C379.7,449.5,379.1,452.2,378.1,454.9z"/>
						<g>
							<g>
								<path style="fill:none;" d="M203,525.1C203,525.1,203,525.1,203,525.1c-0.2,0.1-0.3,0.2-0.5,0.3l0,0c0,0,0,0,0,0
									c-4.8,3.4-8,9-8,15.3c0,10.2,8.3,18.6,18.6,18.6c1.2,0,2.4-0.1,3.5-0.3c0.1,0,0.3-0.1,0.5-0.1c6.5-1.4,11.8-6.3,13.8-12.6
									c0.6-1.8,0.9-3.7,0.9-5.6c0-5.6-2.5-10.6-6.3-14c-0.1-0.1-0.3-0.2-0.4-0.3c0,0,0,0,0,0c-3.2-2.7-7.3-4.2-11.8-4.2
									C209.4,522.1,205.9,523.2,203,525.1z M215.7,532c4.1,4.5,9.4,13.5,3.5,19.2c-0.7,0.7-1.6,1-2.4,1c-0.9,0-1.8-0.3-2.5-1.1
									c-1.4-1.4-1.3-3.6,0.1-5c1.7-1.7-1.5-7-3.8-9.5c-1.3-1.4-1.2-3.7,0.2-4.9C212.2,530.5,214.4,530.6,215.7,532z"/>
								<path style="fill:none;" d="M334.5,396.5c2.6,0.9,5.1,2.1,7.4,3.6c8.2,5.2,13.7,13.3,15.6,22.7c1.4-0.2,2.9-0.3,4.3-0.3
									c2.8,0,5.6,0.4,8.2,1.2c1.2-1.5,2.1-3.2,2.9-5c0-0.1,0.1-0.2,0.1-0.3c0,0,0,0,0,0c1-2.6,1.6-5.3,1.6-8.2
									c0-12.3-10-22.4-22.3-22.4c0,0,0,0-0.1,0c0,0-0.1,0-0.1,0c-4,0-8,1.1-11.4,3.2C338.3,392.4,336.2,394.3,334.5,396.5z"/>
								<path style="fill:none;" d="M273.3,400c2.6,0,5.2,0.3,7.6,0.8c-0.1-0.9-0.1-1.9-0.1-2.8c0-10.3,3.9-19.9,10.6-26.6l-20.5-18
									l4.6-5.3l21.4,18.9c3.7-2.3,7.8-3.8,12.1-4.3c0.5-9.6-3.4-22-11.4-36.6c0-0.1-0.1-0.2-0.2-0.3c0,0,0,0,0,0
									c-0.7-1.3-1.5-2.6-2.2-4c-4.4,1.1-9.1,1.6-13.9,1.6c-25.1,0-52.3-13.3-53.7-14c-1.7-0.9-2.4-3-1.6-4.7
									c0.9-1.7,2.9-2.5,4.7-1.6c0.4,0.2,35.7,17.4,60.7,12.3c-5.4-8.5-11.9-17.7-19.6-27.5c-1.2,0.2-2.5,0.3-3.7,0.3
									c-16.2,0-35.8-14.2-36.7-14.9c-1.6-1.1-1.9-3.3-0.8-4.9s3.3-1.9,4.9-0.8c5.4,3.9,19.7,12.7,30.8,13.5
									c-0.6-0.8-1.3-1.6-1.9-2.4c-24.3-29.3-49.8-53.1-50.1-53.3c-1.4-1.3-1.5-3.5-0.2-4.9s3.5-1.5,4.9-0.2
									c0.3,0.2,26.1,24.3,50.7,54c12.3,14.8,22.2,28.4,29.6,40.7c3.2-19.7-5.7-43-5.9-43.3c-0.7-1.8,0.2-3.8,2-4.5s3.8,0.2,4.5,2
									c0.5,1.3,12.1,31.6,4.4,54.6c8.1,15.3,12,28.3,11.6,38.9c10.8,1.5,20.1,9.1,24.7,20.2c2.7-1.1,5.6-1.9,8.5-2.1
									c5.5-26.1,0.8-47.6-4.3-61.3c-1.9-5-3.9-9.3-5.7-12.9c0,0.9,0,1.8,0,2.7c0,1.9-1.5,3.5-3.5,3.5h0c-1.9,0-3.5-1.5-3.5-3.5
									c-0.2-28.6-9-50.5-25.2-63.3c-6.1-4.8-12.1-7.5-16.6-9c1.5,2.7,2.6,5.5,3.4,8.3c0.5,1.9-0.5,3.8-2.4,4.4
									c-1.9,0.5-3.8-0.5-4.4-2.4c-4.7-16.2-24.1-32.7-56-47.5c-18.2-8.5-35.7-14.2-43.7-16.6c0.1,7.3,0.6,22.2,2.7,38.2
									c2.8,21.2,7.3,37.2,13.3,47.1l0,0c0.1,0.2,0.2,0.3,0.3,0.5c2.1,3.4,4.3,6,6.8,7.9c1.5,1.2,1.8,3.4,0.6,4.9
									c-0.7,0.9-1.7,1.4-2.8,1.4c-0.8,0-1.5-0.2-2.1-0.7c-1.6-1.3-3.2-2.8-4.7-4.6c-1,3.2-1.9,7.7-1.9,12.8
									c0,3.8,0.5,7.9,1.9,12.3c3.4,10.6,11.2,20,23.2,28.1l0,0c0.2,0.1,0.4,0.2,0.6,0.4c4,2.7,8.5,5.2,13.4,7.5
									c1.8,0.8,2.5,2.9,1.6,4.7c-0.6,1.2-1.9,2-3.2,2c-0.5,0-1-0.1-1.5-0.3c-3.2-1.6-6.3-3.2-9.2-4.9c0.2,4.4,1,11,3.6,18.4
									c6.3,17.7,19.3,31.6,38.8,41.5C270.6,400.1,272,400,273.3,400z"/>
								<path style="fill:none;" d="M238.4,544.4c6.7,0.7,21.3,1.8,34.3-0.4c1.9-0.3,3.7,1,4,2.9s-1,3.7-2.9,4c-6.4,1.1-13,1.4-19,1.4
									c-8,0-14.9-0.6-18.5-1.1c-2.3,5-6.1,9.2-10.9,11.8c14.6,7.3,34.8,7.5,55.4,0.3c15.4-5.4,28.5-14.2,33.2-22
									c-1.4-0.3-2.7-0.6-4-0.9c-29.7-6.4-53.9-11.6-75.1-12.9c2.3,3.8,3.6,8.3,3.6,13C238.7,541.9,238.6,543.2,238.4,544.4z"/>
								<path style="fill:none;" d="M307.5,453.9c5.7-3.2,12.2-4.9,18.9-4.9c3.6,0,7.2,0.5,10.6,1.5c1.4,0.4,2.7,0.8,3.9,1.3
									c5.1-4.2,8.6-10,9.8-16.6c0.3-1.8,0.5-3.5,0.5-5.3c0-0.8,0-1.7-0.1-2.6c0,0,0,0,0,0c0,0,0-0.1,0-0.1c0,0,0,0,0,0v0
									c-0.9-8.7-5.6-16.4-13-21.2c-3-1.9-6.2-3.2-9.7-3.9c0,0,0,0-0.1,0c0,0-0.1,0-0.1,0c-1.8-0.4-3.6-0.5-5.5-0.5
									c-8.9,0-17.1,4.1-22.5,11c3.8,4.5,6.4,9.8,7.6,15.5c0.5,2.4,0.8,4.9,0.8,7.5c0,5.8-1.4,11.4-4,16.5
									C305.6,452.6,306.5,453.3,307.5,453.9z"/>
								<path style="fill:none;" d="M327.2,394.8c2-3.2,4.5-6,7.6-8.3c-3.9-10.2-12.6-17-22.4-17l0,0c-4.5,0-8.7,1.4-12.5,4
									c-0.1,0.1-0.2,0.2-0.3,0.3c-0.4,0.5-0.9,0.8-1.5,1c-6.4,5.4-10.2,13.9-10.2,23.1c0,1.8,0.1,3.6,0.4,5.3
									c2.5,1.1,4.8,2.6,7,4.3c6.7-8.3,16.7-13.1,27.5-13.1C324.3,394.5,325.8,394.6,327.2,394.8z"/>
								<path style="fill:none;" d="M472.9,314.7L472.9,314.7c-1-17,3.3-37.4,3.5-38.3c0.4-1.9,2.3-3.1,4.2-2.7s3.1,2.3,2.7,4.2
									c0,0.2-2.8,13.1-3.4,26.5c22-32.9,40-63.8,40.2-64.2c1-1.7,3.1-2.2,4.8-1.3c1.7,1,2.2,3.1,1.3,4.8c-0.2,0.3-9.3,16-22.6,37
									c13.2-6.7,25.3-20.8,25.4-21c1.2-1.5,3.5-1.7,4.9-0.4c1.5,1.2,1.7,3.5,0.4,4.9c-0.8,0.9-18.8,22.1-37,26.2c0,0,0,0,0,0
									c-5.6,8.7-11.6,17.9-17.9,27.1c0,0.1-0.1,0.2-0.2,0.3c-2.1,3.1-4.3,6.2-6.5,9.3c14.4-1.7,27.2-10.9,27.4-11
									c1.6-1.1,3.8-0.8,4.9,0.8c1.1,1.6,0.8,3.8-0.8,4.9c-0.7,0.5-17.6,12.6-36,12.6c-0.2,0-0.4,0-0.6,0c0,0,0,0,0,0
									c-2.1,3-4.3,5.9-6.4,8.7l0,0c20.8-1.3,38.2-4.9,51.8-10.5c12.2-5,21.5-11.8,27.6-20.1c6.3-8.5,8.1-17.2,8.4-23.6
									c-5.3,7.3-12.2,13.6-20.5,18.7c-0.6,0.3-1.2,0.5-1.8,0.5c-1.2,0-2.3-0.6-3-1.7c-1-1.6-0.5-3.8,1.2-4.8
									c10.4-6.4,18.2-14.6,23.4-24.7c0.1-0.4,0.3-0.8,0.6-1.1l0,0c6.3-12.9,8.4-28.8,6.1-47.4c-2.5-20.1-9.5-37.7-12.4-44.4
									c-3.8,1.7-10.8,5.5-18.1,12.2c-6.1,5.6-11.2,12.1-15.3,19.4c-0.1,0.3-0.3,0.6-0.5,0.8c-5.3,9.7-8.8,20.9-10.4,33.4
									c-0.2,1.9-2,3.3-3.9,3c-1.9-0.2-3.3-2-3-3.9c1.4-10.2,3.9-19.1,7-26.8c-6.2,3.8-14.7,10.3-22.5,20.5
									c-17.9,23.3-24.6,56.3-19.7,95.6C461.7,330.7,467.4,322.7,472.9,314.7z"/>
								<path style="fill:none;" d="M479.8,391.9c-0.4,0-0.9-0.1-1.3-0.2c-6.4-2.5-29.5-3.5-46.6-3.8c22.9,11,44.1,16.7,63.4,16.7
									c32.9,0,52.6-16.9,57.7-35.9c-11.5,8.6-24.1,9.9-34.3,9.9c-7.5,0-15.2-0.8-23.4-1.6c-8.7-0.9-17.7-1.8-27.1-1.8
									c-13,0-24.4,1.8-35.1,5.7c16.4,0.3,40.3,1.2,48,4.3c1.8,0.7,2.7,2.8,2,4.5C482.5,391,481.2,391.9,479.8,391.9z"/>
								<path style="fill:none;" d="M194.2,465.8c-1.5,12-2,30.7,3.6,53.3c20.1-22.4,17-58.9,10.5-86.4c-4.1-17.5-10.1-33.5-14.7-44.5
									c-1.1,12.3-4.6,25.5-8.2,39.1c-8.2,31.4-16.7,63.8,4.2,87.4c-4.5-21-3.9-38.5-2.4-50.1c1.9-14.9,5.6-23.6,5.8-24
									c0.8-1.8,2.8-2.6,4.6-1.8s2.6,2.8,1.8,4.6C199.4,443.6,195.9,451.8,194.2,465.8z"/>
								<path style="fill:none;" d="M399.3,285.6c-0.5-1.9,0.7-3.8,2.6-4.2s3.8,0.7,4.2,2.6c0,0.2,5,20.4,9.3,42.8
									c2.5,12.9,4.2,23.8,5.2,32.8c6.1-28.6,3-48.9-0.3-70.1c-3.4-22.2-7-45.2,0.1-78.6c-28.6,30-42.4,56.8-42.2,81.5
									c0.2,23.6,12.8,42.5,25,60.7c4,6.1,8,11.9,11.3,17.8C413.4,347.2,403.8,303.7,399.3,285.6z"/>
								<path style="fill:none;" d="M349.5,510.1C349.6,510.1,349.6,510.1,349.5,510.1c0,0,0.1-0.1,0.1-0.1c0,0,0,0,0,0c0,0,0,0,0,0
									c0,0,0,0,0,0c0,0,0,0,0,0c0,0,0.1-0.1,0.1-0.1c0,0,0,0,0,0c1.6-1.7,2.9-3.6,4.1-5.5c2.9-4.9,4.4-10.5,4.4-16.2
									c0-3.2-0.5-6.3-1.4-9.3c-2.6-8.6-8.8-15.7-16.9-19.6c-0.1,0-0.1,0-0.2-0.1c-1.5-0.7-3.1-1.3-4.8-1.8
									c-2.8-0.8-5.8-1.2-8.8-1.2c-6,0-11.9,1.7-16.9,4.8c0,0,0,0-0.1,0c-1,0.6-1.9,1.3-2.8,2c5.8,6.1,9.3,14.4,9.3,23.4
									c0,10-4.3,19-11.2,25.2c5.9,5.4,13.6,8.4,21.7,8.4c4.4,0,8.6-0.9,12.6-2.6c0,0,0.1,0,0.1-0.1
									C343.1,515.7,346.6,513.3,349.5,510.1z"/>
								<path style="fill:none;" d="M293.8,462.1L293.8,462.1C293.8,462.1,293.8,462.1,293.8,462.1c-0.1-0.1-0.2-0.1-0.4-0.2
									c-3.5-1.7-7.5-2.6-11.6-2.6c-15,0-27.1,12.2-27.1,27.1c0,15,12.2,27.1,27.1,27.1c15,0,27.1-12.2,27.1-27.1
									C308.9,475.7,302.7,466.5,293.8,462.1z M292.8,503.4c-0.6,0.5-1.4,0.7-2.1,0.7c-1.1,0-2.1-0.5-2.8-1.4
									c-1.2-1.5-0.9-3.7,0.7-4.9c5.9-4.4,3.9-13.2,3.9-13.3c-0.4-1.9,0.7-3.8,2.6-4.2c1.9-0.4,3.8,0.7,4.2,2.6
									C299.4,483.4,302.3,496.2,292.8,503.4z"/>
								<path style="fill:none;" d="M359.8,508.1c-0.2,0.4-0.5,0.9-0.8,1.3c28.7,2.2,53.2,1.1,73.4-1.7c23.4-4.6,33.1-30.9,33.2-31.1
									c0.6-1.8,2.7-2.8,4.5-2.1c1.8,0.6,2.8,2.7,2.1,4.5c-0.1,0.3-3.1,8.5-9.7,17c-2.2,2.9-4.6,5.4-7.1,7.7
									c10.2-2.3,19-5,26.2-7.6c26.7-9.7,39.1-20.7,39.2-20.8c1.4-1.3,3.7-1.2,4.9,0.2c1.3,1.4,1.2,3.6-0.2,4.9
									c-0.5,0.5-13.5,12-41.5,22.2c-15.7,5.7-33.1,9.9-51.7,12.3c-0.7,0.1-1.4,0.2-2.1,0.3c-0.1,0-0.3,0-0.4,0c-0.1,0-0.2,0-0.3,0
									c-5.5,0.7-11,1.2-16.6,1.6c29,18.3,55.9,18.5,56.2,18.5c1.9,0,3.5,1.6,3.5,3.5c0,1.9-1.6,3.5-3.5,3.5
									c-1.4,0-34.3-0.3-67.8-25c-4,0.1-8,0.2-12.1,0.2c-9.1,0-18.4-0.3-27.9-1c19.6,18.4,37.6,18.8,37.8,18.8
									c1.9,0,3.5,1.6,3.5,3.5s-1.6,3.5-3.5,3.5c-1,0-23.6-0.3-46.9-25c-2.3,2-4.8,3.7-7.4,5.1c6.8,18.1,22.9,29.5,48,33.8
									c20.2,3.5,38.9,1,39.1,0.9c0.4,0,0.8,0,1.2,0c30.8,6,55.3,2.1,72.9-11.7c7-5.5,11.8-11.7,15.1-17.3
									c-4.2,2.7-8.6,4.8-13.4,6.6c-0.4,0.1-0.8,0.2-1.2,0.2c-1.4,0-2.8-0.9-3.3-2.3c-0.7-1.8,0.3-3.8,2.1-4.5
									c8.4-3,15.8-7.7,22-13.8c0.2-0.3,0.5-0.6,0.8-0.8c0,0,0,0,0,0c8.4-8.7,14.7-20.2,18.8-34.7c3.9-13.6,4.6-26.3,4.7-32.6
									c-12.8,3-36,9.7-49.4,18.5c0,0,0,0,0,0c-3.4,2.2-6.2,4.6-8,7c-1.1,1.6-3.3,1.9-4.9,0.8c-1.6-1.1-1.9-3.3-0.8-4.9
									c1-1.4,2.3-2.8,3.8-4.1c-4.2-0.8-10-1.5-16.7-1.5c-2,0-4.1,0.1-6.2,0.2c-17.4,1.2-32.4,7.2-44.7,17.8
									c-0.2,0.1-0.3,0.3-0.5,0.4l0,0c-3.3,2.9-6.4,6.1-9.3,9.7c-0.7,0.9-1.7,1.3-2.7,1.3c-0.8,0-1.6-0.3-2.2-0.8
									c-1.5-1.2-1.7-3.4-0.5-4.9c1.4-1.7,2.8-3.3,4.3-4.9c-3.5,0.1-7.9,0.6-12.9,1.7C385,486.4,371.2,494.9,359.8,508.1z"/>
								<path style="fill:none;" d="M370.1,431C370,431,370,431,370.1,431c-2.7-1-5.4-1.6-8.2-1.6c-1.2,0-2.4,0.1-3.6,0.3
									c0,0.1,0,0.1,0,0.2c0,2.2-0.2,4.5-0.6,6.6c-1.4,7.2-4.9,13.7-10.1,18.7c6.9,4.5,12.3,11.1,15.3,18.9
									c11.9-0.5,21.4-10.4,21.4-22.4c0-9.2-5.5-17.4-14.1-20.8C370.1,431,370.1,431,370.1,431z M372.9,447.8
									c0.4-1.9,2.3-3,4.2-2.6c1.9,0.4,3,2.3,2.6,4.2c0,0.1-0.7,2.8-1.6,5.5c-0.8,2.2-2.7,7.3-6.7,7.3c-0.1,0-0.1,0-0.2,0
									c-1.9-0.1-3.4-1.7-3.4-3.6c0.1-1.5,1-2.7,2.4-3.2C371,454.2,372.2,450.8,372.9,447.8z"/>
								<path style="fill:none;" d="M281.8,452.3c4.4,0,8.7,0.9,12.6,2.4c1.1-1.2,2.1-2.5,3-3.9c0,0,0,0,0,0c2.9-4.5,4.4-9.8,4.4-15.2
									c0-2-0.2-4.1-0.6-6c-1.1-5.3-3.8-10.2-7.7-14.1c0,0,0,0,0,0c0,0-0.1-0.1-0.1-0.1c-2.7-2.6-5.8-4.7-9.2-6.1c0,0-0.1,0-0.1,0
									c0,0-0.1,0-0.1-0.1c-3.3-1.3-6.8-2-10.4-2c-1.4,0-2.8,0.1-4.2,0.3c-13.8,2-24.2,14.1-24.2,28.1c0,10.4,5.7,20,14.8,24.9
									C265.6,455.3,273.3,452.3,281.8,452.3z M281.1,440.8c1.9-4.7,1-14.1,0.6-17.3c-0.3-1.9,1-3.7,3-4c1.9-0.3,3.7,1,4,3
									c0.2,1.4,1.9,13.6-1,20.9c-0.5,1.4-1.9,2.2-3.3,2.2c-0.4,0-0.9-0.1-1.3-0.2C281.3,444.6,280.4,442.6,281.1,440.8z"/>
								<path style="fill:none;" d="M301.1,458.3c0.1-0.1,0.1-0.1,0.2-0.2c-0.1-0.1-0.3-0.2-0.5-0.4c0,0.1-0.1,0.1-0.2,0.2
									C300.8,458.1,301,458.2,301.1,458.3z"/>
								<path style="fill:#FFFFFF;" d="M283.1,445.3c0.4,0.2,0.9,0.2,1.3,0.2c1.4,0,2.7-0.8,3.3-2.2c2.9-7.2,1.2-19.5,1-20.9
									c-0.3-1.9-2.1-3.2-4-3c-1.9,0.3-3.2,2-3,4c0.5,3.2,1.3,12.6-0.6,17.3C280.4,442.6,281.3,444.6,283.1,445.3z"/>
								<path style="fill:#FFFFFF;" d="M367.8,458.5c-0.1,1.9,1.4,3.6,3.4,3.6c0.1,0,0.1,0,0.2,0c4,0,5.9-5.1,6.7-7.3c1-2.7,1.6-5.4,1.6-5.5
									c0.4-1.9-0.7-3.8-2.6-4.2c-1.9-0.4-3.8,0.7-4.2,2.6c-0.7,3-1.9,6.4-2.7,7.6C368.9,455.8,367.9,457,367.8,458.5z"/>
								<path style="fill:#FFFFFF;" d="M379.4,421.4c6.6-9.1,18.5-21.9,38-33.1c0,0,0,0,0,0c28.2,15.4,54.4,23.3,77.9,23.3
									c42.7,0,65.5-26.1,66-52c0-1.5-0.9-2.8-2.2-3.3c-1.4-0.5-2.9-0.2-3.9,0.9c-9,10.1-19.9,14.4-36.5,14.4
									c-7.1,0-14.7-0.8-22.7-1.5c-8.9-0.9-18.1-1.8-27.8-1.8c-11.4,0-21.6,1.3-31.3,4.1l0,0c5.6-5.9,11.8-13.1,18.6-21.9
									c0,0,0,0,0,0c45.1-2,75.6-13.3,90.7-33.8c12.1-16.5,10-33.5,9-38.4c1.2-2.6,2.3-5.2,3.2-8c4.2-12.4,5.3-26.8,3.3-42.8
									c-3.3-26.9-14-48.7-14.5-49.6c-0.8-1.6-2.6-2.3-4.2-1.8c-0.5,0.1-11.4,3.8-23.2,14.7c-5.3,4.8-11.2,11.6-16.5,20.7
									c-4.4,1.8-19.5,9-33,26.5c-9.1,11.8-15.6,25.9-19.4,41.9c-4.5,19.4-4.8,41.7-1,66.1l0,0c-10.2,13.1-19,22.9-26.2,29.1
									c0,0,0,0,0,0c11-37.7,7.1-62.7,3.4-86.9c-3.7-24.2-7.6-49.1,3-88c0.4-1.5-0.2-3.1-1.6-3.9c-1.4-0.8-3.1-0.6-4.2,0.5
									c-36,35.1-53.4,66.3-53.2,95.5c0.2,25.7,14,46.4,26.2,64.5c6,8.9,11.6,17.3,15.4,25.8c-13.9,8.2-24.1,17.1-31.3,25
									c-1.1-13.7-11.6-24.8-25-26.7c5.5-27.3,0.4-49.8-4.9-64.2c-5.2-13.9-11.5-22.8-13.5-25.4c-1.4-9.7-3.9-18.5-7.5-26.3
									c-4.6-9.9-11-18.2-19.1-24.5c-11.7-9.2-23.2-11.6-26.8-12.1c-10-12.3-26.9-24-50.5-35c-25.1-11.7-49-18.3-49.2-18.3
									c-1-0.3-2.2-0.1-3,0.6c-0.9,0.7-1.4,1.7-1.4,2.8c0,0.2-0.1,20.9,2.8,43.7c2.8,21.4,7.3,37.6,13.4,48.5
									c-2.1,4.8-6.9,18.3-1.9,34.2c3.7,11.8,12,22.1,24.7,30.9c-0.2,4.1,0,13.5,4,24.9c4.3,12.3,14,29.1,35.8,42.1
									c-4.9,2.1-9.3,5.3-12.9,9.4c-5.6,6.5-8.7,14.7-8.7,23.2c0,12.4,6.5,23.8,16.8,30.2c-4,5.2-6.5,11.5-7,18.4
									c-5,2.3-18.3,9-33.2,21c2.6-6.6,4.3-13.9,5.2-21.9c1.6-15,0-32.5-4.6-52c-7.8-33-21.5-60-22.1-61.1
									c-0.8-1.5-2.5-2.3-4.2-1.8s-2.6,2.1-2.4,3.8c2.2,15.5-2.7,34-7.8,53.5c-4.8,18.2-9.7,36.9-9.1,54.5
									c0.6,19.4,7.9,34.6,22.3,46.4c-0.5,0.7-0.9,1.5-1.4,2.3c0,0,0,0,0,0s0,0,0,0c-8.6,10.5-15.5,21.9-20.6,33.9
									c-0.8,1.8,0.1,3.8,1.9,4.6c0.4,0.2,0.9,0.3,1.4,0.3c1.4,0,2.7-0.8,3.2-2.1c3.1-7.3,6.9-14.4,11.5-21.2
									c1.7,12.4,12.4,22,25.3,22c1.2,0,2.4-0.1,3.6-0.3c8.9,6,19.6,9.2,32,9.7c0.9,0,1.7,0,2.6,0c10.2,0,21.2-2,32-5.7
									c20.4-7.1,36.1-19.2,39.2-30.2c0.3-0.9,0.1-1.9-0.4-2.8c-0.5-0.8-1.3-1.4-2.3-1.6c-2.8-0.6-5.5-1.2-8.2-1.8
									c-33.2-7.2-59.5-12.8-82.9-13.3c-4.2-3.3-9.5-5.2-15.3-5.3c14.2-12.5,27.8-20,34.6-23.4c2.6,16.3,16.7,28.8,33.7,28.8
									c6.3,0,12.2-1.7,17.2-4.7c7.3,7.2,17.1,11.2,27.4,11.2c4.1,0,8.1-0.6,11.9-1.8c7.7,20.2,26.1,33.3,53.4,38
									c19.5,3.4,37,1.5,40.5,1c9.6,1.8,18.6,2.8,27.1,2.8c20.3,0,37.4-5.3,50.9-15.9c14.8-11.6,20.9-26.3,23-32.8
									c9.2-9.6,16.1-22.2,20.4-37.6c5.7-20.4,4.9-38.1,4.9-38.8c0-1-0.5-2-1.3-2.6c-0.8-0.6-1.8-0.9-2.8-0.7
									c-1.7,0.4-34.8,7.3-54.6,19.5c-4.1-1.1-15.9-3.7-30.6-2.7c-13.5,0.9-31.7,5.1-48.1,18.7c-3.3-0.3-11.2-0.6-21.4,1.7
									c-9.4,2.1-22.1,6.8-34.5,17.3c0.2-1.7,0.3-3.4,0.3-5c0-2.3-0.2-4.7-0.6-7l0,0c14.9-1.5,26.5-14,26.5-29.2
									c0-10.6-5.6-20.2-14.6-25.4C377.8,424.9,378.7,423.2,379.4,421.4C379.4,421.4,379.4,421.4,379.4,421.4z M475.7,242.6
									c7.8-10.2,16.4-16.7,22.5-20.5c-3.1,7.6-5.6,16.5-7,26.8c-0.2,1.9,1.1,3.7,3,3.9c1.9,0.2,3.7-1.1,3.9-3
									c1.6-12.5,5.1-23.6,10.4-33.4c0.2-0.2,0.4-0.5,0.5-0.8c4.1-7.3,9.2-13.8,15.3-19.4c7.3-6.8,14.3-10.5,18.1-12.2
									c3,6.8,10,24.3,12.4,44.4c2.3,18.6,0.2,34.5-6.1,47.4l0,0c-0.3,0.3-0.5,0.7-0.6,1.1c-5.2,10-13,18.3-23.4,24.7
									c-1.7,1-2.2,3.2-1.2,4.8c0.7,1.1,1.8,1.7,3,1.7c0.6,0,1.2-0.2,1.8-0.5c8.3-5.1,15.2-11.4,20.5-18.7
									c-0.3,6.4-2.1,15.1-8.4,23.6c-6.1,8.3-15.4,15-27.6,20.1c-13.7,5.6-31.1,9.2-51.8,10.5l0,0c2.1-2.8,4.3-5.7,6.4-8.7
									c0,0,0,0,0,0c0.2,0,0.4,0,0.6,0c18.4,0,35.3-12,36-12.6c1.6-1.1,1.9-3.3,0.8-4.9c-1.1-1.6-3.3-1.9-4.9-0.8
									c-0.1,0.1-12.9,9.2-27.4,11c2.2-3.1,4.4-6.2,6.5-9.3c0.1-0.1,0.1-0.2,0.2-0.3c6.3-9.2,12.4-18.4,17.9-27.1c0,0,0,0,0,0
									c18.2-4.1,36.2-25.3,37-26.2c1.2-1.5,1.1-3.7-0.4-4.9s-3.7-1.1-4.9,0.4c-0.1,0.2-12.2,14.3-25.5,21
									c13.2-21,22.4-36.7,22.6-37c1-1.7,0.4-3.8-1.3-4.8c-1.7-1-3.8-0.4-4.8,1.3c-0.2,0.4-18.2,31.3-40.2,64.2
									c0.6-13.4,3.4-26.4,3.4-26.5c0.4-1.9-0.8-3.8-2.7-4.2s-3.8,0.8-4.2,2.7c-0.2,0.9-4.5,21.3-3.5,38.3l0,0
									c-5.5,8-11.2,16-16.8,23.5C451.1,298.9,457.9,265.9,475.7,242.6z M481.1,385.1c-7.7-3-31.6-4-48-4.3
									c10.7-3.8,22.1-5.7,35.1-5.7c9.3,0,18.3,0.9,27.1,1.8c8.2,0.8,15.9,1.6,23.4,1.6c10.2,0,22.8-1.3,34.3-9.9
									c-5.1,19-24.8,35.9-57.7,35.9c-19.2,0-40.5-5.6-63.4-16.7c17.2,0.3,40.2,1.3,46.6,3.8c0.4,0.2,0.9,0.2,1.3,0.2
									c1.4,0,2.7-0.8,3.3-2.2C483.8,387.9,482.9,385.9,481.1,385.1z M403.3,353c-12.2-18.2-24.8-37.1-25-60.7
									c-0.2-24.7,13.6-51.5,42.2-81.5c-7.1,33.4-3.6,56.3-0.1,78.5c3.3,21.2,6.4,41.5,0.3,70.1c-1-9-2.8-19.9-5.2-32.8
									c-4.3-22.3-9.3-42.5-9.3-42.8c-0.5-1.9-2.4-3-4.2-2.6c-1.9,0.5-3,2.4-2.6,4.2c4.5,18,14.1,61.6,15.3,85.2
									C411.3,365,407.4,359.1,403.3,353z M197.7,438.9c-1.8-0.8-3.8,0-4.6,1.8c-0.1,0.4-3.9,9-5.8,24c-1.5,11.6-2.1,29.1,2.4,50.1
									c-20.9-23.6-12.4-56-4.2-87.4c3.6-13.7,7-26.8,8.2-39.1c4.6,11,10.6,27,14.7,44.5c6.5,27.5,9.6,64.1-10.5,86.4
									c-5.7-22.6-5.2-41.3-3.6-53.3c1.8-14,5.3-22.3,5.3-22.4C200.3,441.7,199.5,439.6,197.7,438.9z M310.2,540.5
									c1.3,0.3,2.6,0.6,4,0.9c-4.7,7.8-17.8,16.6-33.2,22c-20.6,7.2-40.8,7-55.4-0.3c4.8-2.7,8.6-6.8,10.9-11.8
									c3.6,0.4,10.5,1.1,18.5,1.1c6,0,12.6-0.3,19-1.4c1.9-0.3,3.2-2.1,2.9-4c-0.3-1.9-2.1-3.2-4-2.9c-13.1,2.2-27.6,1.1-34.3,0.4
									c0.2-1.2,0.3-2.5,0.3-3.7c0-4.8-1.3-9.2-3.6-13C256.3,528.9,280.5,534.1,310.2,540.5z M224.9,526.3
									C225,526.4,225,526.4,224.9,526.3c0.2,0.1,0.3,0.2,0.4,0.4c3.9,3.4,6.3,8.4,6.3,14c0,1.9-0.3,3.8-0.9,5.6
									c-2,6.3-7.3,11.2-13.8,12.6c-0.1,0-0.3,0.1-0.5,0.1c-1.1,0.2-2.3,0.3-3.5,0.3c-10.2,0-18.6-8.3-18.6-18.6
									c0-6.3,3.2-11.9,8-15.3c0,0,0,0,0,0l0,0c0.1-0.1,0.3-0.2,0.5-0.3c0,0,0,0,0,0c2.9-1.9,6.4-3,10.1-3
									C217.6,522.1,221.7,523.7,224.9,526.3z M352.3,387.7C352.3,387.7,352.3,387.7,352.3,387.7c12.4,0,22.4,10.1,22.4,22.4
									c0,2.9-0.5,5.6-1.6,8.2c0,0,0,0,0,0c0,0.1-0.1,0.2-0.1,0.3c-0.7,1.8-1.7,3.5-2.9,5c-2.7-0.8-5.4-1.2-8.2-1.2
									c-1.5,0-2.9,0.1-4.3,0.3c-1.9-9.3-7.5-17.5-15.6-22.7c-2.3-1.5-4.8-2.7-7.4-3.6c1.7-2.2,3.8-4.1,6.2-5.5
									c3.4-2.1,7.4-3.2,11.4-3.2C352.2,387.7,352.2,387.7,352.3,387.7z M308,428c-1.2-5.7-3.8-11-7.6-15.5
									c5.4-6.9,13.6-11,22.5-11c1.9,0,3.7,0.2,5.5,0.5c0,0,0.1,0,0.1,0c0,0,0,0,0.1,0c3.5,0.7,6.7,2,9.7,3.9
									c7.4,4.7,12.1,12.4,13,21.2v0c0,0,0,0,0,0c0,0,0,0.1,0,0.1c0,0,0,0,0,0c0.1,1,0.1,1.8,0.1,2.6c0,1.8-0.2,3.6-0.5,5.3
									c-1.2,6.5-4.7,12.4-9.8,16.6c-1.3-0.5-2.6-1-3.9-1.3c-3.5-1-7-1.5-10.6-1.5c-6.7,0-13.1,1.7-18.9,4.9c-1-0.6-1.9-1.3-2.8-2
									c2.7-5.1,4-10.7,4-16.5C308.8,432.9,308.5,430.4,308,428z M295.3,407.6c-2.2-1.7-4.5-3.2-7-4.3c-0.3-1.8-0.4-3.5-0.4-5.3
									c0-9.2,3.8-17.8,10.2-23.1c0.6-0.2,1.1-0.5,1.5-1c0.1-0.1,0.2-0.2,0.3-0.3c3.8-2.6,8.1-4,12.5-4l0,0c9.8,0,18.5,6.7,22.4,17
									c-3,2.2-5.6,5-7.6,8.3c-1.4-0.2-2.9-0.3-4.4-0.3C312,394.5,302,399.4,295.3,407.6z M230.4,358.7c-2.6-7.4-3.4-14-3.6-18.4
									c2.9,1.7,5.9,3.3,9.2,4.9c0.5,0.2,1,0.3,1.5,0.3c1.3,0,2.6-0.7,3.2-2c0.8-1.8,0.1-3.8-1.6-4.7c-4.9-2.4-9.4-4.9-13.4-7.5
									c-0.2-0.1-0.4-0.2-0.6-0.4l0,0c-12-8.1-19.8-17.5-23.2-28.1c-1.4-4.3-1.9-8.5-1.9-12.3c0-5.1,0.9-9.6,1.9-12.8
									c1.5,1.8,3.1,3.3,4.7,4.6c0.6,0.5,1.4,0.7,2.1,0.7c1,0,2.1-0.5,2.8-1.4c1.2-1.5,0.9-3.7-0.6-4.9c-2.4-1.9-4.7-4.5-6.8-7.9
									c-0.1-0.2-0.2-0.3-0.3-0.5l0,0c-6-9.9-10.5-25.9-13.3-47.1c-2.1-16-2.6-30.9-2.7-38.2c7.9,2.4,25.5,8.1,43.7,16.6
									c31.9,14.9,51.3,31.3,56,47.5c0.5,1.9,2.5,2.9,4.4,2.4c1.9-0.5,2.9-2.5,2.4-4.4c-0.8-2.8-2-5.5-3.4-8.3
									c4.5,1.5,10.6,4.2,16.6,9c16.3,12.8,25,34.7,25.2,63.3c0,1.9,1.6,3.5,3.5,3.5h0c1.9,0,3.5-1.6,3.5-3.5c0-0.9,0-1.8,0-2.7
									c1.9,3.6,3.9,7.9,5.7,12.9c5,13.7,9.8,35.2,4.3,61.3c-2.9,0.3-5.8,1-8.5,2.1c-4.6-11.1-13.9-18.7-24.7-20.2
									c0.4-10.6-3.5-23.6-11.6-38.9c7.8-23-3.8-53.3-4.4-54.6c-0.7-1.8-2.7-2.7-4.5-2s-2.7,2.7-2,4.5c0.1,0.3,9.1,23.6,5.9,43.3
									c-7.4-12.3-17.3-25.9-29.6-40.7c-24.6-29.6-50.4-53.7-50.7-54c-1.4-1.3-3.6-1.2-4.9,0.2c-1.3,1.4-1.2,3.6,0.2,4.9
									c0.3,0.2,25.8,24,50.1,53.3c0.6,0.8,1.3,1.6,1.9,2.4c-11.1-0.8-25.4-9.6-30.8-13.5c-1.6-1.1-3.7-0.8-4.9,0.8
									c-1.1,1.6-0.8,3.7,0.8,4.9c0.9,0.7,20.5,14.9,36.7,14.9c1.3,0,2.5-0.1,3.7-0.3c7.7,9.8,14.2,18.9,19.6,27.5
									c-25,5.1-60.4-12.1-60.7-12.3c-1.7-0.9-3.8-0.1-4.7,1.6c-0.9,1.7-0.1,3.8,1.6,4.7c1.4,0.7,28.6,14,53.7,14
									c4.8,0,9.5-0.5,13.9-1.6c0.8,1.3,1.5,2.7,2.2,4c0,0,0,0,0,0c0.1,0.1,0.1,0.2,0.2,0.3c8,14.7,11.9,27,11.4,36.6
									c-4.3,0.5-8.4,1.9-12.1,4.3l-21.4-18.9l-4.6,5.3l20.5,18c-6.7,6.7-10.6,16.3-10.6,26.6c0,0.9,0,1.9,0.1,2.8
									c-2.5-0.5-5-0.8-7.6-0.8c-1.4,0-2.8,0.1-4.1,0.2C249.7,390.3,236.6,376.4,230.4,358.7z M244.9,435.5
									c0-14,10.4-26.1,24.2-28.1c1.4-0.2,2.8-0.3,4.2-0.3c3.6,0,7.1,0.7,10.4,2c0,0,0.1,0,0.1,0.1c0,0,0.1,0,0.1,0
									c3.5,1.4,6.6,3.4,9.2,6.1c0,0,0.1,0.1,0.1,0.1c0,0,0,0,0,0c3.9,3.9,6.5,8.8,7.7,14.1c0.4,1.9,0.6,4,0.6,6
									c0,5.4-1.5,10.7-4.4,15.2c0,0,0,0,0,0c-0.9,1.4-1.9,2.7-3,3.9c-3.9-1.5-8.1-2.4-12.6-2.4c-8.4,0-16.1,3.1-22.1,8.1
									C250.6,455.5,244.9,445.9,244.9,435.5z M301.3,458.2c-0.1,0-0.1,0.1-0.2,0.2c-0.1-0.1-0.3-0.2-0.5-0.3
									c0.1-0.1,0.1-0.1,0.2-0.2C301,457.9,301.2,458,301.3,458.2z M281.8,513.5c-15,0-27.1-12.2-27.1-27.1s12.2-27.1,27.1-27.1
									c4.2,0,8.1,1,11.6,2.6c0.1,0,0.2,0.1,0.3,0.2h0c0,0,0,0,0,0c9,4.4,15.1,13.7,15.1,24.3C308.9,501.3,296.7,513.5,281.8,513.5
									z M339,517.5c-4,1.7-8.2,2.6-12.6,2.6c-8.1,0-15.8-3-21.7-8.5c6.9-6.2,11.2-15.2,11.2-25.2c0-9.1-3.6-17.3-9.3-23.4
									c0.9-0.7,1.9-1.4,2.8-2c0,0,0,0,0.1,0c5-3.2,10.9-4.8,16.9-4.8c3,0,5.9,0.4,8.8,1.2c1.7,0.5,3.3,1.1,4.8,1.8
									c0.1,0,0.1,0.1,0.2,0.1c8.1,3.9,14.3,11,16.9,19.6c0.9,3,1.4,6.2,1.4,9.3c0,5.7-1.5,11.3-4.4,16.2c-1.1,1.9-2.5,3.8-4.1,5.5
									c0,0,0,0,0,0c0,0-0.1,0.1-0.1,0.1c0,0,0,0,0,0c0,0,0,0,0,0c0,0,0,0,0,0c0,0,0,0,0,0c0,0,0,0,0,0.1c0,0,0,0,0,0
									c-3,3.1-6.5,5.6-10.5,7.3C339,517.5,339,517.5,339,517.5z M400.8,482.7c5-1.1,9.4-1.6,12.9-1.7c-1.5,1.5-2.9,3.2-4.3,4.9
									c-1.2,1.5-1,3.7,0.5,4.9c0.6,0.5,1.4,0.8,2.2,0.8c1,0,2-0.4,2.7-1.3c2.9-3.6,6-6.8,9.3-9.7l0,0c0.1-0.1,0.3-0.3,0.5-0.4
									c12.3-10.6,27.3-16.6,44.7-17.8c2.1-0.1,4.2-0.2,6.2-0.2c6.7,0,12.5,0.7,16.7,1.5c-1.5,1.3-2.8,2.7-3.8,4.1
									c-1.1,1.6-0.8,3.7,0.8,4.9s3.7,0.8,4.9-0.8c1.8-2.5,4.6-4.8,8-7c0,0,0,0,0,0c13.4-8.8,36.6-15.5,49.4-18.5
									c-0.1,6.3-0.9,19-4.7,32.6c-4.1,14.4-10.4,26-18.8,34.7c0,0,0,0,0,0c-0.3,0.2-0.6,0.5-0.8,0.8c-6.2,6.2-13.6,10.8-22,13.8
									c-1.8,0.7-2.8,2.7-2.1,4.5c0.5,1.4,1.9,2.3,3.3,2.3c0.4,0,0.8-0.1,1.2-0.2c4.8-1.7,9.2-3.9,13.4-6.6
									c-3.3,5.5-8.1,11.8-15.1,17.3c-17.6,13.8-42.1,17.7-72.9,11.7c-0.4-0.1-0.8-0.1-1.2,0c-0.2,0-18.9,2.6-39.1-0.9
									c-25.1-4.4-41.2-15.8-48-33.8c2.7-1.4,5.2-3.1,7.4-5.1c23.3,24.7,45.9,25,46.9,25c1.9,0,3.5-1.6,3.5-3.5
									c0-1.9-1.6-3.5-3.5-3.5c-0.2,0-18.2-0.4-37.8-18.8c9.5,0.7,18.8,1,27.9,1c4.1,0,8.1-0.1,12.1-0.2c33.5,24.7,66.4,25,67.8,25
									c1.9,0,3.5-1.6,3.5-3.5c0-1.9-1.6-3.5-3.5-3.5c-0.3,0-27.2-0.2-56.2-18.5c5.6-0.4,11.2-0.9,16.6-1.6c0.1,0,0.2,0,0.3,0
									c0.1,0,0.3,0,0.4,0c0.7-0.1,1.4-0.2,2.1-0.3c18.6-2.5,36-6.6,51.7-12.3c28-10.2,41-21.7,41.5-22.2c1.4-1.3,1.5-3.5,0.2-4.9
									s-3.5-1.5-4.9-0.2c-0.1,0.1-12.5,11.1-39.2,20.8c-7.2,2.6-16,5.3-26.2,7.6c2.5-2.2,4.9-4.8,7.1-7.7c6.7-8.5,9.6-16.6,9.7-17
									c0.6-1.8-0.3-3.8-2.1-4.5c-1.8-0.6-3.8,0.3-4.5,2.1c-0.1,0.3-9.8,26.6-33.2,31.1c-20.3,2.8-44.7,3.9-73.4,1.7
									c0.3-0.4,0.6-0.9,0.8-1.3C371.2,494.9,385,486.4,400.8,482.7z M384.3,451.9c0,12-9.5,21.9-21.4,22.4
									c-2.9-7.8-8.3-14.4-15.3-18.9c5.2-5,8.7-11.5,10.1-18.7c0.4-2.2,0.6-4.4,0.6-6.6c0-0.1,0-0.1,0-0.2c1.2-0.2,2.4-0.3,3.6-0.3
									c2.8,0,5.5,0.5,8.1,1.5c0,0,0,0,0.1,0s0.1,0,0.1,0C378.7,434.5,384.3,442.6,384.3,451.9z"/>
								<path style="fill:#FFFFFF;" d="M295.1,480.2c-1.9,0.4-3,2.3-2.6,4.2c0,0.1,2,8.9-3.9,13.3c-1.5,1.2-1.9,3.4-0.7,4.9
									c0.7,0.9,1.7,1.4,2.8,1.4c0.7,0,1.5-0.2,2.1-0.7c9.5-7.1,6.6-20,6.5-20.5C298.9,481,297,479.8,295.1,480.2z"/>
								<path style="fill:#FFFFFF;" d="M210.5,536.8c2.3,2.5,5.5,7.8,3.8,9.5c-1.4,1.3-1.4,3.6-0.1,5c0.7,0.7,1.6,1.1,2.5,1.1
									c0.9,0,1.8-0.3,2.4-1c5.8-5.7,0.5-14.8-3.5-19.2c-1.3-1.4-3.5-1.5-4.9-0.2C209.3,533.1,209.2,535.3,210.5,536.8z"/>
							</g>
						</g>
					</g>
				</g>
			</g>
		</g>
	</g>
	<g>
		<path id="SVGID_1_" style="fill:none;stroke:#FFFFFF;stroke-width:10;stroke-miterlimit:10;" d="M421.3,557.4L320.5,406.1v151.3H179.7V219.9h149.4l82.5,141.2V219.9h140.7v337.5L421.3,557.4
			L421.3,557.4z"/>
	</g>
</g>
</svg>
